<svg xmlns="http://www.w3.org/2000/svg" viewBox="0 0 584 427">
    <path 
        fill="#15803D" 
        d="M146 23.573c0 .306 5.698 6.715 12.662 14.242 31.707 34.268 51.486 68.557 71.345 123.685 18.709 51.937 29.986 119.163 32.964 196.5.583 15.125 1.205 31.029 1.384 35.342.212 5.12.784 8.126 1.646 8.659 3.51 2.169 35.919 2.361 49.403.293l3.904-.599-.656-19.597c-4.104-122.629-37.609-227.594-94.284-295.371-21.291-25.462-40.119-42.424-60.994-54.949-8.809-5.286-17.374-9.33-17.374-8.205m273.938 66.408c-38.851 14.315-74.757 55.605-95.502 109.825l-2.796 7.306 1.672 6.694a6054.43 6054.43 0 0 0 6.131 24.115c2.453 9.581 5.236 22.152 6.185 27.936 1.935 11.79 2.293 11.578 4.803-2.857 11.96-68.766 39.783-127.735 77.57-164.403 13.645-13.24 13.569-12.901 1.937-8.616M100 159.877c0 .483 4.742 7.011 10.537 14.507 45.298 58.592 71.096 125.06 76.084 196.031l.693 9.86 8.161 3.77c13.719 6.338 46.867 16.947 48.342 15.471.67-.67-1.729-28.076-3.284-37.516-11.581-70.277-48.283-134.857-102.331-180.061C120.14 166.833 100 155.202 100 159.877m372.28 4.035c-55.108 37.134-99.843 113.609-112.123 191.679-2.27 14.432-4.623 38.276-3.853 39.047 1.445 1.445 32.058-10.906 48.163-19.431 10.318-5.462 9.642-4.078 11.461-23.472 5.462-58.211 26.06-119.163 58.507-173.121C481.725 166.491 485 160.581 485 159.55c0-2.048-6.533.193-12.72 4.362"  
        fill-rule="evenodd"/>
</svg>


